<?xml version="1.0" standalone="no"?>
<!DOCTYPE svg PUBLIC "-//W3C//DTD SVG 20010904//EN"
 "http://www.w3.org/TR/2001/REC-SVG-20010904/DTD/svg10.dtd">
<svg version="1.0" xmlns="http://www.w3.org/2000/svg"
 width="73.000000pt" height="73.000000pt" viewBox="0 0 73.000000 73.000000"
 preserveAspectRatio="xMidYMid meet">
<metadata>
Created by potrace 1.14, written by Peter Selinger 2001-2017
</metadata>
<g transform="translate(0.000000,73.000000) scale(0.100000,-0.100000)"
fill="#000000" stroke="none">
<path d="M144 687 c-26 -15 -84 -81 -84 -96 0 -6 -4 -11 -9 -11 -4 0 -18 -28
-31 -62 -46 -128 -11 -278 89 -379 49 -49 163 -109 194 -101 4 1 7 -2 7 -6 0
-5 25 -9 55 -8 30 0 55 4 55 8 0 4 3 7 8 7 15 -3 73 14 78 22 3 5 8 7 12 5 4
-2 32 15 62 38 53 41 133 143 124 158 -3 5 -1 8 4 8 5 0 9 6 10 13 0 6 4 36 8
65 6 52 6 54 -17 50 -19 -2 -24 -10 -25 -33 -1 -16 -7 -43 -15 -60 -7 -16 -13
-33 -13 -36 -2 -11 -60 -99 -66 -99 -3 0 -16 -9 -28 -21 -71 -65 -204 -87
-304 -49 -161 60 -243 228 -194 395 13 44 43 91 81 127 60 58 60 100 -1 65z"/>
<path d="M110 500 c-6 -10 -9 -23 -9 -27 1 -4 -1 -16 -6 -26 -11 -27 1 -138
17 -148 7 -5 9 -9 5 -9 -12 0 12 -39 47 -78 25 -28 95 -74 116 -77 3 0 10 -3
15 -6 6 -3 39 -5 75 -4 66 2 131 25 177 64 31 26 83 111 83 136 0 12 5 26 10
31 7 7 6 16 -4 29 -17 24 -46 13 -46 -17 -1 -54 -80 -168 -117 -168 -7 0 -13
-4 -13 -8 0 -21 -146 -21 -190 0 -36 17 -76 55 -103 98 -23 36 -32 121 -17
164 9 29 9 40 0 51 -17 20 -27 19 -40 -5z"/>
<path d="M180 382 c0 -43 67 -142 97 -142 7 0 13 -5 13 -11 0 -5 4 -8 9 -4 5
3 12 1 15 -3 10 -17 103 -5 142 17 65 36 118 143 79 158 -18 6 -35 -6 -39 -28
-4 -28 -40 -78 -65 -90 -42 -20 -93 -18 -132 3 -34 19 -69 71 -69 103 0 10 -9
14 -25 13 -14 -1 -25 -8 -25 -16z"/>
</g>
</svg>
